<svg xmlns="http://www.w3.org/2000/svg" viewBox="0 0 512 576">
  <defs>
    <linearGradient id="synqora-pet-body" x1="12" y1="12" x2="52" y2="52" gradientUnits="userSpaceOnUse">
      <stop offset="0" stop-color="#303845"/>
      <stop offset="0.48" stop-color="#1e252b"/>
      <stop offset="1" stop-color="#111316"/>
    </linearGradient>
    <radialGradient id="synqora-pet-soft" cx="32" cy="29" r="28" gradientUnits="userSpaceOnUse">
      <stop offset="0" stop-color="#2fa6a1" stop-opacity="0.22"/>
      <stop offset="1" stop-color="#2fa6a1" stop-opacity="0"/>
    </radialGradient>
    <style>
      .body{fill:url(#synqora-pet-body);stroke:#111316;stroke-width:1.15}.eye{fill:#fffaf2}.pupil{fill:#111316}.smile{fill:none;stroke:#fffaf2;stroke-width:2;stroke-linecap:round}.leg{fill:none;stroke:#111316;stroke-width:4;stroke-linecap:round}.cheek{fill:#d75982}.accent{fill:#2fa6a1}.sleep-mark{fill:#d99a2b}.shadow{fill:#111316;opacity:.16}.soft{fill:url(#synqora-pet-soft)}.highlight{fill:#5e6973;opacity:.14}
    </style>
    <g id="synqora-black-pet-core">
      <ellipse class="shadow" cx="32" cy="53" rx="17" ry="4"/>
      <circle class="soft" cx="32" cy="30" r="28"/>
      <circle class="body" cx="15" cy="30" r="7"/><circle class="body" cx="20" cy="20" r="7"/><circle class="body" cx="31" cy="15" r="8"/><circle class="body" cx="43" cy="19" r="7"/><circle class="body" cx="50" cy="30" r="7"/><circle class="body" cx="47" cy="41" r="8"/><circle class="body" cx="35" cy="48" r="8"/><circle class="body" cx="23" cy="45" r="8"/>
      <ellipse class="body" cx="32" cy="32" rx="21" ry="17"/>
      <path class="highlight" d="M22 24c3-3.4 7-5 12-4.8 4 .2 7.5 1.6 10.4 4.2-3.8-1.5-7.8-2.1-12.1-2-4.1.1-7.5 1-10.3 2.6Z"/>
      <circle class="eye" cx="25" cy="29" r="4.5"/><circle class="eye" cx="39" cy="29" r="4.5"/>
      <circle class="pupil" cx="26" cy="29.6" r="1.8"/><circle class="pupil" cx="38" cy="29.6" r="1.8"/>
      <circle class="cheek" cx="18.5" cy="34.5" r="2.7"/><circle class="cheek" cx="45.5" cy="34.5" r="2.7"/>
      <path class="smile" d="M28 38c2.2 1.5 5.8 1.5 8 0"/>
      <circle class="accent" cx="48" cy="21" r="1.9"/>
    </g>
    <g id="synqora-black-pet-blink">
      <ellipse class="shadow" cx="32" cy="53" rx="17" ry="4"/>
      <circle class="soft" cx="32" cy="30" r="28"/>
      <circle class="body" cx="15" cy="30" r="7"/><circle class="body" cx="20" cy="20" r="7"/><circle class="body" cx="31" cy="15" r="8"/><circle class="body" cx="43" cy="19" r="7"/><circle class="body" cx="50" cy="30" r="7"/><circle class="body" cx="47" cy="41" r="8"/><circle class="body" cx="35" cy="48" r="8"/><circle class="body" cx="23" cy="45" r="8"/>
      <ellipse class="body" cx="32" cy="32" rx="21" ry="17"/>
      <path class="highlight" d="M22 24c3-3.4 7-5 12-4.8 4 .2 7.5 1.6 10.4 4.2-3.8-1.5-7.8-2.1-12.1-2-4.1.1-7.5 1-10.3 2.6Z"/>
      <path class="smile" d="M21 29h8M35 29h8M28 38c2.2 1.5 5.8 1.5 8 0"/>
      <circle class="cheek" cx="18.5" cy="34.5" r="2.7"/><circle class="cheek" cx="45.5" cy="34.5" r="2.7"/>
      <circle class="accent" cx="48" cy="21" r="1.9"/>
    </g>
    <g id="synqora-black-pet-sleep">
      <ellipse class="shadow" cx="32" cy="53" rx="17" ry="4"/>
      <circle class="soft" cx="32" cy="32" r="28"/>
      <circle class="body" cx="15" cy="34" r="7"/><circle class="body" cx="20" cy="24" r="7"/><circle class="body" cx="31" cy="20" r="8"/><circle class="body" cx="43" cy="23" r="7"/><circle class="body" cx="50" cy="34" r="7"/><circle class="body" cx="46" cy="44" r="8"/><circle class="body" cx="34" cy="49" r="8"/><circle class="body" cx="22" cy="47" r="8"/>
      <ellipse class="body" cx="32" cy="35" rx="21" ry="15"/>
      <path class="highlight" d="M22 28c3-2.8 6.8-4.1 11.5-3.9 4 .2 7.4 1.4 10.2 3.5-3.7-1.1-7.5-1.6-11.5-1.4-4 .1-7.4.7-10.2 1.8Z"/>
      <path class="smile" d="M21 32c2.6 1.7 5.4 1.7 8 0M35 32c2.6 1.7 5.4 1.7 8 0M28 40c2 1.1 6 1.1 8 0"/>
      <circle class="sleep-mark" cx="48" cy="18" r="1.7"/><circle class="sleep-mark" cx="52" cy="13" r="1.2"/>
    </g>
    <symbol id="idle-a" viewBox="0 0 64 64"><path class="leg" d="M19 43c-3 4-4 7-2 10M27 46c-1 3-.5 6 1 9M36 46c1 3 .5 6-1 9M45 43c3 4 4 7 2 10"/><use href="#synqora-black-pet-core"/></symbol>
    <symbol id="idle-b" viewBox="0 0 64 64"><path class="leg" d="M17 43c-4 3-5 6-3 9M26 46c-2 3-1 6 1 9M36 46c2 3 1 6-1 9M47 43c4 3 5 6 3 9"/><g transform="translate(0 -1)"><use href="#synqora-black-pet-core"/></g></symbol>
    <symbol id="idle-c" viewBox="0 0 64 64"><path class="leg" d="M19 43c-3 4-3 7 0 10M27 46c-2 2-2 6 0 9M36 46c2 2 2 6 0 9M45 43c3 4 3 7 0 10"/><use href="#synqora-black-pet-blink"/></symbol>
    <symbol id="walk-right-a" viewBox="0 0 64 64"><g transform="translate(2 0) rotate(-4 32 32)"><path class="leg" d="M17 43c-4 3-7 6-6 9M26 46c-3 2-3 6 0 9M37 46c3 3 4 6 2 9M48 42c4 2 7 5 6 9"/><use href="#synqora-black-pet-core"/></g></symbol>
    <symbol id="walk-right-b" viewBox="0 0 64 64"><g transform="translate(3 -1) rotate(4 32 32)"><path class="leg" d="M16 42c-5 2-7 4-7 8M26 46c-2 3-1 6 2 9M37 46c2 2 2 6-1 9M48 43c4 3 5 6 3 9"/><use href="#synqora-black-pet-core"/></g></symbol>
    <symbol id="walk-left-a" viewBox="0 0 64 64"><g transform="translate(64 0) scale(-1 1)"><use href="#walk-right-a"/></g></symbol>
    <symbol id="walk-left-b" viewBox="0 0 64 64"><g transform="translate(64 0) scale(-1 1)"><use href="#walk-right-b"/></g></symbol>
    <symbol id="walk-down-a" viewBox="0 0 64 64"><path class="leg" d="M17 43c-4 4-4 7-1 10M26 46c-2 3-1 7 2 9M36 46c2 3 1 7-2 9M47 43c4 4 4 7 1 10"/><g transform="translate(0 2)"><use href="#synqora-black-pet-core"/></g></symbol>
    <symbol id="walk-down-b" viewBox="0 0 64 64"><path class="leg" d="M18 43c-4 2-6 5-4 9M27 46c-2 3-1 6 1 9M36 46c2 3 1 6-1 9M46 43c4 2 6 5 4 9"/><g transform="translate(0 3)"><use href="#synqora-black-pet-blink"/></g></symbol>
    <symbol id="walk-up-a" viewBox="0 0 64 64"><path class="leg" d="M18 44c-4 2-5 5-3 9M27 46c-1 3-.5 6 1 9M36 46c1 3 .5 6-1 9M46 44c4 2 5 5 3 9"/><g transform="translate(0 -2)"><use href="#synqora-black-pet-core"/></g></symbol>
    <symbol id="walk-up-b" viewBox="0 0 64 64"><path class="leg" d="M17 43c-5 2-6 5-3 9M27 47c-2 2-1 5 1 8M36 47c2 2 1 5-1 8M47 43c5 2 6 5 3 9"/><g transform="translate(0 -3)"><use href="#synqora-black-pet-blink"/></g></symbol>
    <symbol id="pet-a" viewBox="0 0 64 64"><path class="leg" d="M17 42c-6 0-9-3-9-7M27 46c-3 3-4 6-2 9M36 46c3 3 4 6 2 9M47 42c6 0 9-3 9-7"/><g transform="scale(1.03) translate(-1 -1)"><use href="#synqora-black-pet-core"/></g><circle class="cheek" cx="18" cy="35" r="3.2"/><circle class="cheek" cx="46" cy="35" r="3.2"/></symbol>
    <symbol id="pet-b" viewBox="0 0 64 64"><path class="leg" d="M16 41c-6-1-9-5-8-9M27 46c-4 3-5 7-3 9M36 46c4 3 5 7 3 9M48 41c6-1 9-5 8-9"/><g transform="scale(1.04) translate(-1.2 -1.4)"><use href="#synqora-black-pet-blink"/></g></symbol>
    <symbol id="sleep-a" viewBox="0 0 64 64"><path class="leg" d="M18 45c-3 3-4 5-2 8M27 47c-1 2-.5 5 1 7M36 47c1 2 .5 5-1 7M46 45c3 3 4 5 2 8"/><use href="#synqora-black-pet-sleep"/></symbol>
    <symbol id="sleep-b" viewBox="0 0 64 64"><path class="leg" d="M18 46c-2 2-3 4-1 7M27 48c-1 2-.4 4 1 6M36 48c1 2 .4 4-1 6M46 46c2 2 3 4 1 7"/><g transform="translate(0 1)"><use href="#synqora-black-pet-sleep"/></g></symbol>
  </defs>
  <g id="frame-idle-one-0" transform="translate(0 0)"><use href="#idle-a" width="64" height="64"/></g><g id="frame-idle-one-1" transform="translate(64 0)"><use href="#idle-b" width="64" height="64"/></g><g id="frame-idle-one-2" transform="translate(128 0)"><use href="#idle-a" width="64" height="64"/></g><g id="frame-idle-one-3" transform="translate(192 0)"><use href="#idle-c" width="64" height="64"/></g><g id="frame-idle-one-4" transform="translate(256 0)"><use href="#idle-a" width="64" height="64"/></g><g id="frame-idle-one-5" transform="translate(320 0)"><use href="#idle-b" width="64" height="64"/></g><g id="frame-idle-one-6" transform="translate(384 0)"><use href="#idle-a" width="64" height="64"/></g><g id="frame-idle-one-7" transform="translate(448 0)"><use href="#idle-a" width="64" height="64"/></g>
  <g id="frame-idle-two-0" transform="translate(0 64)"><use href="#idle-b" width="64" height="64"/></g><g id="frame-idle-two-1" transform="translate(64 64)"><use href="#idle-a" width="64" height="64"/></g><g id="frame-idle-two-2" transform="translate(128 64)"><use href="#idle-b" width="64" height="64"/></g><g id="frame-idle-two-3" transform="translate(192 64)"><use href="#idle-a" width="64" height="64"/></g><g id="frame-idle-two-4" transform="translate(256 64)"><use href="#idle-c" width="64" height="64"/></g><g id="frame-idle-two-5" transform="translate(320 64)"><use href="#idle-a" width="64" height="64"/></g><g id="frame-idle-two-6" transform="translate(384 64)"><use href="#idle-b" width="64" height="64"/></g><g id="frame-idle-two-7" transform="translate(448 64)"><use href="#idle-a" width="64" height="64"/></g>
  <g id="frame-idle-three-0" transform="translate(0 128)"><use href="#idle-c" width="64" height="64"/></g><g id="frame-idle-three-1" transform="translate(64 128)"><use href="#idle-a" width="64" height="64"/></g><g id="frame-idle-three-2" transform="translate(128 128)"><use href="#idle-b" width="64" height="64"/></g><g id="frame-idle-three-3" transform="translate(192 128)"><use href="#idle-a" width="64" height="64"/></g><g id="frame-idle-three-4" transform="translate(256 128)"><use href="#idle-b" width="64" height="64"/></g><g id="frame-idle-three-5" transform="translate(320 128)"><use href="#idle-a" width="64" height="64"/></g><g id="frame-idle-three-6" transform="translate(384 128)"><use href="#idle-c" width="64" height="64"/></g><g id="frame-idle-three-7" transform="translate(448 128)"><use href="#idle-a" width="64" height="64"/></g>
  <g id="frame-walk-right-0" transform="translate(0 192)"><use href="#walk-right-a" width="64" height="64"/></g><g id="frame-walk-right-1" transform="translate(64 192)"><use href="#walk-right-b" width="64" height="64"/></g><g id="frame-walk-right-2" transform="translate(128 192)"><use href="#walk-right-a" width="64" height="64"/></g><g id="frame-walk-right-3" transform="translate(192 192)"><use href="#walk-right-b" width="64" height="64"/></g><g id="frame-walk-right-4" transform="translate(256 192)"><use href="#walk-right-a" width="64" height="64"/></g><g id="frame-walk-right-5" transform="translate(320 192)"><use href="#walk-right-b" width="64" height="64"/></g><g id="frame-walk-right-6" transform="translate(384 192)"><use href="#walk-right-a" width="64" height="64"/></g><g id="frame-walk-right-7" transform="translate(448 192)"><use href="#walk-right-b" width="64" height="64"/></g>
  <g id="frame-walk-down-0" transform="translate(0 256)"><use href="#walk-down-a" width="64" height="64"/></g><g id="frame-walk-down-1" transform="translate(64 256)"><use href="#walk-down-b" width="64" height="64"/></g><g id="frame-walk-down-2" transform="translate(128 256)"><use href="#walk-down-a" width="64" height="64"/></g><g id="frame-walk-down-3" transform="translate(192 256)"><use href="#walk-down-b" width="64" height="64"/></g><g id="frame-walk-down-4" transform="translate(256 256)"><use href="#walk-down-a" width="64" height="64"/></g><g id="frame-walk-down-5" transform="translate(320 256)"><use href="#walk-down-b" width="64" height="64"/></g><g id="frame-walk-down-6" transform="translate(384 256)"><use href="#walk-down-a" width="64" height="64"/></g><g id="frame-walk-down-7" transform="translate(448 256)"><use href="#walk-down-b" width="64" height="64"/></g>
  <g id="frame-walk-left-0" transform="translate(0 320)"><use href="#walk-left-a" width="64" height="64"/></g><g id="frame-walk-left-1" transform="translate(64 320)"><use href="#walk-left-b" width="64" height="64"/></g><g id="frame-walk-left-2" transform="translate(128 320)"><use href="#walk-left-a" width="64" height="64"/></g><g id="frame-walk-left-3" transform="translate(192 320)"><use href="#walk-left-b" width="64" height="64"/></g><g id="frame-walk-left-4" transform="translate(256 320)"><use href="#walk-left-a" width="64" height="64"/></g><g id="frame-walk-left-5" transform="translate(320 320)"><use href="#walk-left-b" width="64" height="64"/></g><g id="frame-walk-left-6" transform="translate(384 320)"><use href="#walk-left-a" width="64" height="64"/></g><g id="frame-walk-left-7" transform="translate(448 320)"><use href="#walk-left-b" width="64" height="64"/></g>
  <g id="frame-walk-up-0" transform="translate(0 384)"><use href="#walk-up-a" width="64" height="64"/></g><g id="frame-walk-up-1" transform="translate(64 384)"><use href="#walk-up-b" width="64" height="64"/></g><g id="frame-walk-up-2" transform="translate(128 384)"><use href="#walk-up-a" width="64" height="64"/></g><g id="frame-walk-up-3" transform="translate(192 384)"><use href="#walk-up-b" width="64" height="64"/></g><g id="frame-walk-up-4" transform="translate(256 384)"><use href="#walk-up-a" width="64" height="64"/></g><g id="frame-walk-up-5" transform="translate(320 384)"><use href="#walk-up-b" width="64" height="64"/></g><g id="frame-walk-up-6" transform="translate(384 384)"><use href="#walk-up-a" width="64" height="64"/></g><g id="frame-walk-up-7" transform="translate(448 384)"><use href="#walk-up-b" width="64" height="64"/></g>
  <g id="frame-petted-0" transform="translate(0 448)"><use href="#pet-a" width="64" height="64"/></g><g id="frame-petted-1" transform="translate(64 448)"><use href="#pet-b" width="64" height="64"/></g><g id="frame-petted-2" transform="translate(128 448)"><use href="#pet-a" width="64" height="64"/></g><g id="frame-petted-3" transform="translate(192 448)"><use href="#pet-b" width="64" height="64"/></g><g id="frame-petted-4" transform="translate(256 448)"><use href="#pet-a" width="64" height="64"/></g><g id="frame-petted-5" transform="translate(320 448)"><use href="#pet-b" width="64" height="64"/></g><g id="frame-petted-6" transform="translate(384 448)"><use href="#pet-a" width="64" height="64"/></g><g id="frame-petted-7" transform="translate(448 448)"><use href="#pet-b" width="64" height="64"/></g>
  <g id="frame-sleep-0" transform="translate(0 512)"><use href="#sleep-a" width="64" height="64"/></g><g id="frame-sleep-1" transform="translate(64 512)"><use href="#sleep-b" width="64" height="64"/></g><g id="frame-sleep-2" transform="translate(128 512)"><use href="#sleep-a" width="64" height="64"/></g><g id="frame-sleep-3" transform="translate(192 512)"><use href="#sleep-b" width="64" height="64"/></g><g id="frame-sleep-4" transform="translate(256 512)"><use href="#sleep-a" width="64" height="64"/></g><g id="frame-sleep-5" transform="translate(320 512)"><use href="#sleep-b" width="64" height="64"/></g><g id="frame-sleep-6" transform="translate(384 512)"><use href="#sleep-a" width="64" height="64"/></g><g id="frame-sleep-7" transform="translate(448 512)"><use href="#sleep-b" width="64" height="64"/></g>
</svg>
