<svg xmlns="http://www.w3.org/2000/svg" viewBox="0 0 165 42" width="990" height="252">
<!-- SVG created with Arrow, by QuiverAI (https://quiver.ai) -->
  <style type="text/css">.cls-0 {fill:#F8FAFF;}
.cls-1 {fill:url(#SVGID_1_);}
.cls-2 {fill:none;stroke:url(#SVGID_2_);stroke-width:1.5;stroke-linecap:round;stroke-miterlimit:9.9772;}
.cls-3 {fill:#31EEDA;}
.cls-4 {fill:#3076FC;}
.cls-5 {fill:#804AFB;}
.cls-6 {fill:url(#SVGID_3_);}</style>
  <linearGradient id="SVGID_1_" x1="7.306" x2="113.9" y1="21.61" y2="21.61" gradientUnits="userSpaceOnUse">
    <stop stop-color="#0FBBA5" offset="0"/>
    <stop stop-color="#25A0EA" offset=".5071"/>
    <stop stop-color="#5D5BF7" offset=".9989"/>
  </linearGradient>
  <path class="cls-1" d="m19 13.9c-0.6-0.7-1.9-1.4-3-1.4-0.6 0-1.7 0.2-1.7 0.9 0.1 2.1 7.9 1.2 7.9 6.8 0.1 3.8-3.6 6.2-7.7 6.2-2.6 0-5.2-0.9-7.2-2.6l3.4-4.1c0.8 0.8 2.4 1.7 3.7 1.7s1.6-0.4 1.6-0.8c0-0.8-1.1-1.2-3-1.8-1.9-0.5-4.7-1.8-4.7-5.1-0.2-4 3.4-6.2 6.5-6.2 2.7-0.1 5.7 0.6 7.8 2.7l-3.6 3.7zm13.7-1.3h6.5l-5.8 14.1c-1.1 2.7-2.7 5.1-6.4 5.2-1.5 0-2.7-0.1-4-0.3l0.8-4.7c0.5 0.1 1.1 0.2 1.6 0.2 1.4 0 1.9-1.1 2.2-1.8l-5.4-12.7h6.4l2.2 7.2 1.9-7.2zm7.3 0h5.6v1.4c1.1-1.4 2.7-1.8 4.4-1.7 2.4 0 4.5 2 4.5 5v8.5h-6.1v-7.2c-0.1-1.5-0.8-1.7-1.2-1.7-0.6 0-1.4 0.4-1.4 1.7v7.2l-5.8 0.1v-13.3zm26.3 1.4v-1.4h5.4v19.4h-5.6v-7.3c-1 1.2-2.9 1.6-3.9 1.5-3.6 0-6-3.4-5.9-7.1 0-3.4 2.3-6.8 5.8-6.8 1.5-0.1 2.9 0.3 4.2 1.7zm-2.4 2.8c-1.3 0-2.2 1-2.2 2.4 0 1.5 1 2.4 2.2 2.4s2.4-1 2.4-2.4-1-2.4-2.4-2.4zm17-4.7c4.6 0 7.6 2.9 7.5 7 0 4.1-3 7-7.5 7.3-3.9 0-7.3-2.4-7.5-6.7-0.2-4.6 3.2-7.6 7.5-7.6zm0.1 4.7c-1.2 0-2.2 1-2.2 2.4 0 1.2 1 2.3 2.2 2.3 1.3 0 2.2-1 2.2-2.3s-0.9-2.3-2.2-2.4zm15.1-2.7c1.2-1.5 2.1-1.9 4.4-1.8l-0.4 5c-1.7-0.7-3.8-0.2-3.8 2v6.5h-5.9v-13.2h5.7v1.5zm11.4-2c4.2 0 6.4 2 6.4 6.5v7.2h-5.3v-1.1c-0.9 1.1-2.6 1.5-3.7 1.4-2 0-4.4-1.3-4.4-4.1-0.1-3.4 3.6-4.6 7.8-4.5 0-0.9-0.7-1.5-1.5-1.5-1.2 0-2.1 0.5-2.8 1.1l-2.9-2.6c1.5-1.5 3.7-2.4 6.4-2.4zm1.1 8.2c-1.6 0-3.2 0.2-3.2 1.3 0 0.7 0.6 1.1 1.4 1.1 1 0 1.9-0.8 1.8-1.9v-0.5z"/>
  <linearGradient id="SVGID_2_" x1="18.79" x2="139.5" y1="33" y2="33" gradientUnits="userSpaceOnUse">
    <stop stop-color="#28DDD8" offset=".08551"/>
    <stop stop-color="#2C84FE" offset=".5972"/>
    <stop stop-color="#8849FD" offset="1"/>
  </linearGradient>
  <line class="cls-2" x1="19.5" x2="138.8" y1="33" y2="33"/>
  <circle class="cls-3" cx="145.6" cy="33.1" r="1.7"/>
  <circle class="cls-4" cx="150.8" cy="33.1" r="1.7"/>
  <circle class="cls-5" cx="156.1" cy="33.1" r="1.7"/>
  <linearGradient id="SVGID_3_" x1="7.299" x2="113.9" y1="21.61" y2="21.61" gradientUnits="userSpaceOnUse">
    <stop stop-color="#0FBAA5" offset="0"/>
    <stop stop-color="#25A0EA" offset=".5071"/>
    <stop stop-color="#5D5CF7" offset=".9989"/>
  </linearGradient>
  <path class="cls-6" d="m19 13.9c-0.6-0.7-1.9-1.4-3.2-1.4-0.5 0-1.6 0.1-1.5 1 0.1 1.6 7.9 1 7.9 6.6 0.1 3.9-3.6 6.3-7.7 6.3-2.5 0-5.2-0.9-7.2-2.6l3.4-4.1c0.8 0.8 2.4 1.7 3.7 1.8 1.3 0 1.6-0.5 1.6-0.9 0-1.5-4.1-1.5-6-2.9-1.3-1.2-1.8-2.1-1.8-4.2 0-3.4 3.1-6 6.6-6 2.7-0.1 5.7 0.6 7.8 2.7l-3.6 3.7z"/>
</svg>